{
  "accessors": [
    {
      "bufferView": 3,
      "componentType": 5126,
      "count": 432,
      "max": [
        0.995231568813324,
        0.01582407020032406,
        0.30179136991500854
      ],
      "min": [
        -0.9899790287017822,
        -0.0047229016199707985,
        -1.0063409805297852
      ],
      "type": "VEC3"
    },
    {
      "bufferView": 3,
      "byteOffset": 5184,
      "componentType": 5126,
      "count": 432,
      "max": [
        0.9588039517402649,
        1.0,
        0.9213319420814514
      ],
      "min": [
        -0.8467410206794739,
        -1.0,
        -1.0
      ],
      "type": "VEC3"
    },
    {
      "bufferView": 2,
      "componentType": 5126,
      "count": 432,
      "max": [
        0.9796159863471985,
        0.9899152517318726
      ],
      "min": [
        0.015383527614176273,
        0.03232294321060181
      ],
      "type": "VEC2"
    },
    {
      "bufferView": 1,
      "componentType": 5125,
      "count": 1104,
      "type": "SCALAR"
    },
    {
      "bufferView": 3,
      "byteOffset": 10368,
      "componentType": 5126,
      "count": 232,
      "max": [
        0.12883472442626953,
        0.030784480273723602,
        0.11819442361593246
      ],
      "min": [
        -0.11594583839178085,
        0.008537253364920616,
        -0.0587979331612587
      ],
      "type": "VEC3"
    },
    {
      "bufferView": 3,
      "byteOffset": 13152,
      "componentType": 5126,
      "count": 232,
      "max": [
        0.9323182106018066,
        1.0,
        0.9298875331878662
      ],
      "min": [
        -0.9451987743377686,
        -0.9999991059303284,
        -0.8876531720161438
      ],
      "type": "VEC3"
    },
    {
      "bufferView": 2,
      "byteOffset": 3456,
      "componentType": 5126,
      "count": 232,
      "max": [
        0.9201880097389221,
        0.3134080171585083
      ],
      "min": [
        0.018622010946273804,
        0.007936656475067139
      ],
      "type": "VEC2"
    },
    {
      "bufferView": 1,
      "byteOffset": 4416,
      "componentType": 5125,
      "count": 876,
      "type": "SCALAR"
    },
    {
      "bufferView": 3,
      "byteOffset": 15936,
      "componentType": 5126,
      "count": 165,
      "max": [
        0.11089107394218445,
        0.029383089393377304,
        0.0020680639427155256
      ],
      "min": [
        -0.10629010945558548,
        0.00911773182451725,
        -0.12191576510667801
      ],
      "type": "VEC3"
    },
    {
      "bufferView": 3,
      "byteOffset": 17916,
      "componentType": 5126,
      "count": 165,
      "max": [
        0.7733801603317261,
        1.0,
        0.9957079291343689
      ],
      "min": [
        -0.9290785193443298,
        -0.9991450309753418,
        -0.9226899147033691
      ],
      "type": "VEC3"
    },
    {
      "bufferView": 2,
      "byteOffset": 5312,
      "componentType": 5126,
      "count": 165,
      "max": [
        0.9848378896713257,
        0.3042669892311096
      ],
      "min": [
        0.05102356895804405,
        0.007721228525042534
      ],
      "type": "VEC2"
    },
    {
      "bufferView": 1,
      "byteOffset": 7920,
      "componentType": 5125,
      "count": 612,
      "type": "SCALAR"
    },
    {
      "bufferView": 5,
      "componentType": 5126,
      "count": 3,
      "max": [
        1.0,
        0.0,
        1.0,
        0.0,
        0.9998680949211121,
        1.0,
        1.0,
        0.0,
        0.0,
        0.9998680353164673,
        1.0,
        0.0,
        0.0,
        0.9998680353164673,
        0.0,
        1.0
      ],
      "min": [
        -4.3677935934738343e-08,
        -2.5723758678708464e-09,
        0.0,
        0.0,
        0.0,
        0.0,
        0.0,
        0.0,
        -0.016241416335105896,
        -1.0,
        -7.099348331429667e-10,
        0.0,
        -0.016241416335105896,
        0.0,
        -7.099348331429667e-10,
        1.0
      ],
      "type": "MAT4"
    },
    {
      "bufferView": 0,
      "componentType": 5123,
      "count": 432,
      "type": "VEC4"
    },
    {
      "bufferView": 4,
      "componentType": 5126,
      "count": 432,
      "max": [
        1.0,
        0.0,
        0.0,
        0.0
      ],
      "min": [
        1.0,
        0.0,
        0.0,
        0.0
      ],
      "type": "VEC4"
    },
    {
      "bufferView": 0,
      "byteOffset": 3456,
      "componentType": 5123,
      "count": 232,
      "type": "VEC4"
    },
    {
      "bufferView": 4,
      "byteOffset": 6912,
      "componentType": 5126,
      "count": 232,
      "max": [
        1.0,
        0.0,
        0.0,
        0.0
      ],
      "min": [
        1.0,
        0.0,
        0.0,
        0.0
      ],
      "type": "VEC4"
    },
    {
      "bufferView": 0,
      "byteOffset": 5312,
      "componentType": 5123,
      "count": 165,
      "type": "VEC4"
    },
    {
      "bufferView": 4,
      "byteOffset": 10624,
      "componentType": 5126,
      "count": 165,
      "max": [
        1.0,
        0.0,
        0.0,
        0.0
      ],
      "min": [
        1.0,
        0.0,
        0.0,
        0.0
      ],
      "type": "VEC4"
    },
    {
      "bufferView": 6,
      "componentType": 5126,
      "count": 120,
      "max": [
        5.0
      ],
      "min": [
        0.0416666679084301
      ],
      "type": "SCALAR"
    },
    {
      "bufferView": 8,
      "componentType": 5126,
      "count": 120,
      "max": [
        0.7070834636688232,
        0.6793733239173889,
        0.7070834636688232,
        0.6793734431266785
      ],
      "min": [
        0.1960914134979248,
        0.005742396228015423,
        0.196091428399086,
        0.0057423971593379974
      ],
      "type": "VEC4"
    },
    {
      "bufferView": 6,
      "byteOffset": 480,
      "componentType": 5126,
      "count": 113,
      "max": [
        5.0
      ],
      "min": [
        0.0416666679084301
      ],
      "type": "SCALAR"
    },
    {
      "bufferView": 7,
      "componentType": 5126,
      "count": 113,
      "max": [
        1.0000004768371582,
        1.0000005960464478,
        1.0000001192092896
      ],
      "min": [
        0.9999999403953552,
        0.9999999403953552,
        0.9999998211860657
      ],
      "type": "VEC3"
    }
  ],
  "animations": [
    {
      "channels": [
        {
          "sampler": 0,
          "target": {
            "node": 13,
            "path": "rotation"
          }
        },
        {
          "sampler": 1,
          "target": {
            "node": 13,
            "path": "scale"
          }
        }
      ],
      "name": "Armature",
      "samplers": [
        {
          "input": 19,
          "interpolation": "LINEAR",
          "output": 20
        },
        {
          "input": 21,
          "interpolation": "LINEAR",
          "output": 22
        }
      ]
    }
  ],
  "asset": {
    "extras": {
      "author": "powertomato (https://sketchfab.com/powertomato)",
      "license": "CC-BY-NC-4.0 (http://creativecommons.org/licenses/by-nc/4.0/)",
      "source": "https://sketchfab.com/3d-models/letter-88bc6644c5754f0d96c0deaa2fa5c90b",
      "title": "Letter"
    },
    "generator": "Sketchfab-15.85.0",
    "version": "2.0"
  },
  "bufferViews": [
    {
      "buffer": 0,
      "byteLength": 6632,
      "byteStride": 8,
      "name": "shortBufferViews",
      "target": 34962
    },
    {
      "buffer": 0,
      "byteLength": 10368,
      "byteOffset": 6632,
      "name": "floatBufferViews",
      "target": 34963
    },
    {
      "buffer": 0,
      "byteLength": 6632,
      "byteOffset": 17000,
      "byteStride": 8,
      "name": "floatBufferViews",
      "target": 34962
    },
    {
      "buffer": 0,
      "byteLength": 19896,
      "byteOffset": 23632,
      "byteStride": 12,
      "name": "floatBufferViews",
      "target": 34962
    },
    {
      "buffer": 0,
      "byteLength": 13264,
      "byteOffset": 43528,
      "byteStride": 16,
      "name": "floatBufferViews",
      "target": 34962
    },
    {
      "buffer": 0,
      "byteLength": 192,
      "byteOffset": 56792,
      "name": "floatBufferViews"
    },
    {
      "buffer": 0,
      "byteLength": 932,
      "byteOffset": 56984,
      "name": "floatBufferViews"
    },
    {
      "buffer": 0,
      "byteLength": 1356,
      "byteOffset": 57916,
      "byteStride": 12,
      "name": "floatBufferViews"
    },
    {
      "buffer": 0,
      "byteLength": 1920,
      "byteOffset": 59272,
      "byteStride": 16,
      "name": "floatBufferViews"
    }
  ],
  "buffers": [
    {
      "byteLength": 61192,
      "uri": "scene.bin"
    }
  ],
  "extensionsUsed": [
    "KHR_materials_unlit"
  ],
  "images": [
    {
      "uri": "textures/Material_baseColor.png"
    }
  ],
  "materials": [
    {
      "doubleSided": true,
      "extensions": {
        "KHR_materials_unlit": {}
      },
      "name": "Material",
      "pbrMetallicRoughness": {
        "baseColorTexture": {
          "index": 0
        },
        "metallicFactor": 0.0
      }
    }
  ],
  "meshes": [
    {
      "name": "Object_0",
      "primitives": [
        {
          "attributes": {
            "JOINTS_0": 13,
            "NORMAL": 1,
            "POSITION": 0,
            "TEXCOORD_0": 2,
            "WEIGHTS_0": 14
          },
          "indices": 3,
          "material": 0,
          "mode": 4
        }
      ]
    },
    {
      "name": "Object_1",
      "primitives": [
        {
          "attributes": {
            "JOINTS_0": 15,
            "NORMAL": 5,
            "POSITION": 4,
            "TEXCOORD_0": 6,
            "WEIGHTS_0": 16
          },
          "indices": 7,
          "material": 0,
          "mode": 4
        }
      ]
    },
    {
      "name": "Object_2",
      "primitives": [
        {
          "attributes": {
            "JOINTS_0": 17,
            "NORMAL": 9,
            "POSITION": 8,
            "TEXCOORD_0": 10,
            "WEIGHTS_0": 18
          },
          "indices": 11,
          "material": 0,
          "mode": 4
        }
      ]
    }
  ],
  "nodes": [
    {
      "children": [
        1
      ],
      "matrix": [
        0.16939707100391388,
        0.0,
        0.0,
        0.0,
        0.0,
        3.7613705706521534e-17,
        -0.16939707100391388,
        0.0,
        0.0,
        0.16939707100391388,
        3.7613705706521534e-17,
        0.0,
        0.0,
        0.0,
        0.0,
        1.0
      ],
      "name": "Sketchfab_model"
    },
    {
      "children": [
        2
      ],
      "name": "root"
    },
    {
      "children": [
        3
      ],
      "matrix": [
        1.0,
        0.0,
        0.0,
        0.0,
        0.0,
        2.220446049250313e-16,
        1.0,
        0.0,
        0.0,
        -1.0,
        2.220446049250313e-16,
        0.0,
        0.0,
        0.0,
        0.0,
        1.0
      ],
      "name": "GLTF_SceneRootNode"
    },
    {
      "children": [
        4
      ],
      "name": "Armature_7"
    },
    {
      "children": [
        5,
        7,
        9,
        11,
        6,
        8,
        10
      ],
      "name": "GLTF_created_0"
    },
    {
      "children": [
        12
      ],
      "name": "GLTF_created_0_rootJoint"
    },
    {
      "name": "Letter_4"
    },
    {
      "mesh": 0,
      "name": "Object_7",
      "skin": 0
    },
    {
      "name": "Stamp_5"
    },
    {
      "mesh": 1,
      "name": "Object_9",
      "skin": 0
    },
    {
      "name": "Stamp.001_6"
    },
    {
      "mesh": 2,
      "name": "Object_11",
      "skin": 0
    },
    {
      "children": [
        13
      ],
      "name": "Root_3",
      "rotation": [
        -0.7071068286895752,
        0.0,
        0.0,
        0.7071068286895752
      ]
    },
    {
      "name": "Lid_2",
      "rotation": [
        0.7070834636688232,
        0.005742396228015423,
        0.7070834636688232,
        0.0057423971593379974
      ],
      "scale": [
        1.0,
        1.0000001192092896,
        1.0
      ],
      "translation": [
        0.0,
        1.0,
        0.0
      ]
    }
  ],
  "samplers": [
    {
      "magFilter": 9729,
      "minFilter": 9987,
      "wrapS": 10497,
      "wrapT": 10497
    }
  ],
  "scene": 0,
  "scenes": [
    {
      "name": "Sketchfab_Scene",
      "nodes": [
        0
      ]
    }
  ],
  "skins": [
    {
      "inverseBindMatrices": 12,
      "joints": [
        5,
        12,
        13
      ],
      "skeleton": 5
    }
  ],
  "textures": [
    {
      "sampler": 0,
      "source": 0
    }
  ]
}
